<?xml version="1.0" standalone="no"?><!DOCTYPE svg PUBLIC "-//W3C//DTD SVG 1.1//EN" "http://www.w3.org/Graphics/SVG/1.1/DTD/svg11.dtd"><svg t="1606312129232" class="icon" viewBox="0 0 1024 1024" version="1.1" xmlns="http://www.w3.org/2000/svg" p-id="21278" xmlns:xlink="http://www.w3.org/1999/xlink" width="128" height="128"><defs><style type="text/css"></style></defs><path d="M792.188904 593.877799l-32.151584 0 0-49.529043c26.938643-3.475148 32.151584-8.688893 33.890254-18.247596 28.67629-3.476171 64.304191-19.98517 65.173014-26.067702L859.100588 299.308877c13.903222-2.607384 24.331149-8.688893 28.675267-14.772448l-91.24181-62.562894-33.020407 42.577724-95.586951 0L667.926687 191.658088l208.552417 0c23.462326 0 33.88923-13.131065 40.841865-25.296129l-76.469765-53.004191c1.737647-4.344958 2.607494-9.558703 2.607494-14.772448 0-24.330128-22.593503-48.660256-87.766516-48.660256-10.427928 0-22.593503 0-35.627901 1.737574l-3.475294 7.820106c26.068796 13.902638 49.531122 42.577724 57.35258 70.384024 11.296751 9.55768 22.593503 12.165064 33.890254 10.42749l-19.117185 24.330128L667.925663 164.624385 667.925663 80.337723c25.199973-4.343935 33.88923-9.55768 35.627901-21.722744L579.290323 47.318702l0 117.305683L355.097038 164.624385l5.213964 27.033703L579.290323 191.658088l0 72.89317-89.50314 0-90.372987-37.363979 0 63.432705-62.56552-54.742788-40.841865 64.301492-15.641892 0L280.36492 81.20651c26.938643-3.475148 33.88923-9.55768 35.627901-21.722744L190.86178 47.318702l0 252.859985-95.586951 0 5.213964 27.033703 90.372987 0 0 536.034393 17.379539 0c33.02143 0 72.124625-22.592554 72.124625-33.019021L280.365943 327.21239l92.110634 0c12.165575 0 20.854832-10.523681 26.93762-13.131065l0 230.267431c70.386978 0 84.290199-28.674063 84.290199-30.41266l0-5.985318 287.629676 0 0 14.675234-95.586951-6.082532 0 77.334319L329.027219 593.877799l4.34514 27.033703 342.373738 0 0 134.587278c0 10.42749-3.476317 14.772448-15.641892 14.772448L557.566668 770.271228l0 12.165064c67.779484 6.082532 88.634317 21.723767 88.634317 81.679277 100.800915-9.55768 113.835313-50.39783 113.835313-109.485577L760.036297 620.911502l121.655747 0c22.593503 0 33.890254-13.131065 39.972018-24.427342l-84.290199-61.694107L792.188904 593.877799zM579.290323 371.430474l-95.586951 0 0-79.845513 95.586951 0L579.290323 371.430474zM771.333048 371.430474 667.925663 371.430474l0-79.845513 103.407385 0L771.333048 371.430474zM579.290323 398.464177l0 82.451874-95.586951 0 0-82.451874L579.290323 398.464177zM667.925663 398.464177l103.407385 0 0 82.451874L667.925663 480.916051 667.925663 398.464177zM413.317418 630.372991c30.413937 28.675086 53.876263 79.941704 54.745086 121.650641 12.165575 13.033851 25.199973 18.247596 37.365548 18.247596 26.938643 0 49.531122-23.461341 49.531122-51.266617 0-34.757618-33.020407-76.466556-135.558968-93.845365L413.317418 630.372991z" p-id="21279" fill="#004198"></path></svg>