<?xml version="1.0" standalone="no"?><!DOCTYPE svg PUBLIC "-//W3C//DTD SVG 1.1//EN" "http://www.w3.org/Graphics/SVG/1.1/DTD/svg11.dtd"><svg t="1606302807971" class="icon" viewBox="0 0 1024 1024" version="1.1" xmlns="http://www.w3.org/2000/svg" p-id="14211" xmlns:xlink="http://www.w3.org/1999/xlink" width="128" height="128"><defs><style type="text/css"></style></defs><path d="M586.169233 543.235398c-15.646352 12.761652-34.441417 22.768563-55.984059 22.775726l-36.724413 0 0-100.539834c0-9.359158 6.218632-12.490475 12.985756-14.945387l0-2.777253-53.492308 0 0 2.777253c6.767124 2.453888 12.977569 5.586229 12.977569 14.945387l0 93.063559c0 9.359158-6.210445 12.483312-12.977569 14.945387l0 2.785439 123.385145 0 11.850909-32.343639L586.169233 543.235398z" p-id="14212"></path><path d="M172.867116 505.392512l0-2.415003c17.22122-3.880377 24.813129-13.81054 24.813129-27.566846 0-17.059538-11.828396-27.66099-43.24492-27.66099L64.095807 447.749674l0 2.777253c6.766101 2.453888 12.977569 5.586229 12.977569 14.945387l0 93.063559c0 9.359158-6.211469 12.483312-12.977569 14.945387l0 2.785439 88.025822 0c38.460963 0 54.787814-14.520715 54.787814-37.304627C206.90842 521.570983 197.24841 509.496993 172.867116 505.392512zM104.623849 456.730209l34.473139 0c22.583344 0 31.077809 8.267291 31.077809 21.552875 0 13.999852-9.258874 22.900569-31.077809 22.900569l-34.473139 0C104.623849 501.183653 104.623849 456.730209 104.623849 456.730209zM139.683343 566.775534l-35.05847 0 0-56.601112 35.05847 0c28.956495 0 39.835264 10.516518 39.835264 27.445072C179.517583 555.442418 167.644161 566.775534 139.683343 566.775534z" p-id="14213"></path><path d="M921.203776 447.750697l0 2.777253c6.774287 2.453888 12.993942 5.586229 12.993942 14.945387l0 86.228897c-6.233981-2.051729-10.739599-7.429203-21.773909-21.518083l-64.547085-82.431408L810.718429 447.752744l0 2.777253c6.774287 2.453888 12.993942 5.586229 12.993942 14.945387l0 93.063559c0 9.359158-6.218632 12.483312-12.993942 14.945387l0 2.785439 38.623669 0 0-2.785439c-6.774287-2.461051-12.977569-5.585205-12.977569-14.945387l0-83.133396 47.651276 60.85909c30.645974 39.132252 32.405037 40.004109 62.911842 40.004109L946.927647 465.47129c0-9.359158 6.218632-12.490475 12.977569-14.945387l0-2.777253L921.203776 447.750697 921.203776 447.750697z" p-id="14214"></path><path d="M765.753331 511.942695l0-0.008186 0 0c-0.030699-35.706223-22.221094-66.74617-78.141708-66.74617-55.952336 0-78.141708 31.038924-78.172407 66.74617l0 0 0 0c0 0.019443 0 0.030699 0 0.038886 0 0 0 0.01535 0 0.022513l0 0 0 0 0 0 0 0.008186 0 0 0 0c0 0.01228 0 0.023536 0 0.023536s0 0.030699 0 0.038886l0 0 0 0c0.030699 35.706223 22.221094 66.74617 78.172407 66.74617 55.920614 0 78.111009-31.038924 78.141708-66.74617l0 0 0 0c0-0.008186 0-0.030699 0-0.030699 0-0.008186 0-0.019443 0-0.030699l0 0 0 0 0-0.008186 0 0 0 0 0 0c0-0.008186 0-0.01535 0-0.01535C765.753331 511.965208 765.753331 511.953951 765.753331 511.942695zM687.626973 569.877175c-34.31862 0-50.690496-23.100114-50.690496-57.846476 0 0 0-0.01535 0-0.026606l0 0 0 0 0-0.008186 0 0c0-0.008186 0-0.01535 0-0.01535 0-34.747385 16.371876-57.858756 50.690496-57.858756 34.33397 0 50.721195 23.112394 50.721195 57.850569 0 0 0 0.01535-0.016373 0.022513l0 0 0 0 0 0.008186 0 0c0.016373 0.01228 0.016373 0.023536 0.016373 0.023536C738.348168 546.778084 721.959919 569.877175 687.626973 569.877175z" p-id="14215"></path><path d="M407.502018 511.942695l0-0.008186 0 0c-0.030699-35.706223-22.221094-66.74617-78.165244-66.74617-55.921637 0-78.119195 31.038924-78.149894 66.74617l-0.008186 0 0 0c0 0.019443 0.008186 0.030699 0.008186 0.038886 0 0 0 0.01535-0.008186 0.022513l0 0 0 0 0 0 0 0.008186 0 0 0 0c0.008186 0.01228 0.008186 0.023536 0.008186 0.023536s-0.008186 0.030699-0.008186 0.038886l0 0 0.008186 0c0.030699 35.706223 22.228257 66.74617 78.149894 66.74617 55.94415 0 78.133521-31.038924 78.165244-66.74617l0 0 0 0c0-0.008186 0-0.030699 0-0.030699 0-0.008186 0-0.019443 0-0.030699l0 0 0 0 0-0.008186 0 0 0 0 0 0c0-0.008186 0-0.01535 0-0.01535C407.502018 511.965208 407.502018 511.953951 407.502018 511.942695zM329.382822 569.877175c-34.31862 0-50.705845-23.100114-50.705845-57.846476 0 0 0-0.01535 0-0.026606l0 0 0 0 0-0.008186 0 0c0-0.008186 0-0.01535 0-0.01535 0-34.747385 16.387225-57.858756 50.705845-57.858756s50.714032 23.112394 50.714032 57.850569c0 0 0 0.01535 0 0.022513l0 0 0 0 0 0.008186 0 0c0 0.01228 0 0.023536 0 0.023536C380.096854 546.778084 363.701442 569.877175 329.382822 569.877175z" p-id="14216"></path></svg>