<?xml version="1.0" standalone="no"?><!DOCTYPE svg PUBLIC "-//W3C//DTD SVG 1.1//EN" "http://www.w3.org/Graphics/SVG/1.1/DTD/svg11.dtd"><svg t="1606294794256" class="icon" viewBox="0 0 1024 1024" version="1.1" xmlns="http://www.w3.org/2000/svg" p-id="4125" xmlns:xlink="http://www.w3.org/1999/xlink" width="128" height="128"><defs><style type="text/css"></style></defs><path d="M62.578 213.333h711.11v275.911h56.89v-332.8H5.688V896h369.779v-56.889H62.577zM756.622 773.69c-34.133 0-62.578 28.444-62.578 65.422 0 34.133 28.445 65.422 62.578 65.422 34.134 0 62.578-28.444 62.578-65.422 2.844-34.133-25.6-65.422-62.578-65.422z" fill="" p-id="4126"></path><path d="M756.622 668.444c-167.822 0-256 170.667-256 170.667s65.422 170.667 256 170.667c173.511 0 256-170.667 256-170.667s-85.333-170.667-256-170.667z m0 278.756c-62.578 0-105.244-45.511-105.244-108.089 0-59.733 45.51-105.244 105.244-105.244 62.578 0 105.245 45.51 105.245 105.244C864.71 898.844 819.2 947.2 756.622 947.2z m-537.6-648.533h56.89V640h-56.89z m170.667 73.955h56.889V640h-56.89z m170.667 48.356h56.888V640h-56.888z" fill="" p-id="4127"></path></svg>