<?xml version="1.0" standalone="no"?><!DOCTYPE svg PUBLIC "-//W3C//DTD SVG 1.1//EN" "http://www.w3.org/Graphics/SVG/1.1/DTD/svg11.dtd"><svg t="1606294828082" class="icon" viewBox="0 0 1024 1024" version="1.1" xmlns="http://www.w3.org/2000/svg" p-id="4893" xmlns:xlink="http://www.w3.org/1999/xlink" width="128" height="128"><defs><style type="text/css"></style></defs><path d="M911.76 987.39H119.61c-53.28 0-96.61-43.33-96.61-96.61V312.46c0-53.28 43.33-96.61 96.61-96.61h792.15c53.28 0 96.61 43.33 96.61 96.61v578.32c0 53.28-43.33 96.61-96.61 96.61zM119.61 265.05c-26.13 0-47.42 21.28-47.42 47.42v578.32c0 26.13 21.28 47.42 47.42 47.42h792.15c26.13 0 47.42-21.28 47.42-47.42V312.46c0-26.13-21.28-47.42-47.42-47.42H119.61z" p-id="4894"></path><path d="M623.27 760.93H408.14c-32.91 0-59.67-26.76-59.67-59.67V501.99c0-32.91 26.76-59.67 59.67-59.67h215.13c32.91 0 59.67 26.76 59.67 59.67v199.27c0 32.91-26.76 59.67-59.67 59.67zM408.14 491.51c-5.76 0-10.47 4.71-10.47 10.47v199.27c0 5.76 4.71 10.47 10.47 10.47h215.13c5.76 0 10.47-4.71 10.47-10.47V501.99c0-5.76-4.71-10.47-10.47-10.47H408.14zM781.04 170.41c-13.6 0-24.6-11-24.6-24.6V106.7c0-21.38-17.39-38.77-38.72-38.77H313.69c-21.33 0-38.72 17.39-38.72 38.77v39.11c0 13.6-11 24.6-24.6 24.6-13.6 0-24.6-11-24.6-24.6V106.7c0-48.52 39.44-87.96 87.92-87.96h404.03c48.47 0 87.92 39.44 87.92 87.96v39.11c-0.01 13.59-11.01 24.6-24.6 24.6z" p-id="4895"></path><path d="M663.62 601.14c-9.08 0-17.78-5.04-22.05-13.74-6.01-12.2-1.01-26.95 11.19-32.91l313.85-154.4c12.2-6.05 26.9-1.01 32.91 11.19 6.01 12.2 1.01 26.95-11.19 32.91L674.48 598.6a24.41 24.41 0 0 1-10.86 2.54zM368.84 601.67c-3.65 0-7.35-0.82-10.86-2.55L43.08 444.19c-12.2-5.96-17.2-20.71-11.19-32.91 6.01-12.2 20.75-17.2 32.91-11.19l314.9 154.93c12.2 5.96 17.2 20.71 11.19 32.91-4.27 8.7-12.97 13.74-22.05 13.74z" p-id="4896"></path></svg>