<?xml version="1.0" standalone="no"?><!DOCTYPE svg PUBLIC "-//W3C//DTD SVG 1.1//EN" "http://www.w3.org/Graphics/SVG/1.1/DTD/svg11.dtd"><svg t="1606294742074" class="icon" viewBox="0 0 1169 1024" version="1.1" xmlns="http://www.w3.org/2000/svg" p-id="3043" xmlns:xlink="http://www.w3.org/1999/xlink" width="146.125" height="128"><defs><style type="text/css"></style></defs><path d="M857.585168 546.33629l-56.470222-56.470221c-0.499074-0.499074-0.998148-0.935764-1.497222-1.372454a124.194561 124.194561 0 1 0-23.344185 32.826592l53.176333 53.213763a19.962959 19.962959 0 1 0 28.135296-28.160249z m-169.498002-20.150112a92.178965 92.178965 0 1 1 92.178965-92.116581 92.191442 92.191442 0 0 1-92.178965 92.116581z" p-id="3044"></path><path d="M845.856929 661.048445h-17.654742v-57.10654l-52.402769-52.402769A145.292914 145.292914 0 0 1 689.97117 579.412418h-1.809143v81.636027h-34.960133v-86.314845a146.203724 146.203724 0 0 1 0-282.962472v-111.954772c0-21.472658-15.858076-38.89034-35.384345-38.89034H548.98277c-19.900575 0-35.384345 17.467589-35.384346 38.89034v481.232089h-35.022517V333.219222c0-21.035968-15.845599-38.45365-35.384345-38.45365h-69.271469c-19.962959 0-35.384345 16.980992-35.384345 38.45365v328.203529h-17.542451c-9.54479 0-17.280437 8.484258-17.280437 19.039672 0 10.106248 7.735647 19.027196 17.280437 19.027196h524.489326c9.54479 0 17.292914-8.484258 17.292914-19.027196 0.374305-10.106248-7.373818-19.413978-16.918608-19.413978zM267.305413 924.833999h632.638659q43.569159 0 43.569159 43.581636v10.106248q0 43.594112-43.569159 43.581636h-632.576275q-43.594112 0-43.581635-43.581636v-10.106248q0-43.594112 43.581635-43.581636z" p-id="3045"></path><path d="M627.00051 866.492251H540.248975c-29.769763 0-53.887513 12.052637-53.887513 27.037333v23.930597c0 14.77259 24.31738 27.037333 53.887513 27.037333h86.576859c29.757286 0 53.875037-12.065114 53.875037-27.037333v-23.943074c0-14.785067-24.304903-27.037333-53.875037-27.037333z" p-id="3046"></path><path d="M1053.234646 76.707671a38.915294 38.915294 0 0 1 38.902817 38.915294v588.283459a38.902817 38.902817 0 0 1-38.902817 38.902817H114.002362a38.89034 38.89034 0 0 1-38.902817-38.902817V114.774539a38.902817 38.902817 0 0 1 38.902817-38.902817h939.232284m0-75.871722H114.002362A114.213081 114.213081 0 0 0 0.001388 114.774539v589.0695a114.188127 114.188127 0 0 0 114.000974 113.988498h939.232284a114.188127 114.188127 0 0 0 114.000975-113.988498V114.774539A114.188127 114.188127 0 0 0 1053.234646 0.786042z" p-id="3047"></path></svg>